<?xml version="1.0" encoding="utf-8"?>
<!-- Generator: Adobe Illustrator 16.0.0, SVG Export Plug-In . SVG Version: 6.00 Build 0)  -->
<!DOCTYPE svg PUBLIC "-//W3C//DTD SVG 1.1//EN" "http://www.w3.org/Graphics/SVG/1.1/DTD/svg11.dtd">
<svg version="1.1" id="Layer_1" xmlns="http://www.w3.org/2000/svg" xmlns:xlink="http://www.w3.org/1999/xlink" x="0px" y="0px"
	 width="58px" height="58px" viewBox="0 0 58 58" enable-background="new 0 0 58 58" xml:space="preserve">
<path fill="#F7F7F7" d="M45.208,15.46c4.88-5.323,9.009-9.771-5.173-5.454c1.921-8.461,3.267-16.624-6.365-1.797
	c-6.842-6.217-14.019-6.604-18.089,5.109c-8.304-6.096-9.558-5.215-4.658,4.91c-10.745-2.071-12.577,0.254-1.894,7.449
	c-12.635,6.632-12.468,9.826,3.41,13.413c0.676,2.662,2.648,4.74,5.174,5.453c-0.135,19.245,5.629,15.438,12.727,3.595
	c2.525,0.713,5.22-0.048,7.068-1.996c13.869,6.172,15.494,3.42,9.316-9.819c1.848-1.948,2.57-4.788,1.894-7.449
	C61.871,22.217,61.392,19.195,45.208,15.46z M29.16,16.717c1.069,0,1.937,1.868,1.937,4.171s-0.867,4.17-1.937,4.17
	s-1.936-1.867-1.936-4.17S28.091,16.717,29.16,16.717z M21.415,16.717c1.069,0,1.937,1.868,1.937,4.171s-0.867,4.17-1.937,4.17
	s-1.936-1.867-1.936-4.17S20.346,16.717,21.415,16.717z M34.521,29.198c-2.452,2.585-5.674,3.877-8.896,3.877
	c-3.223,0-6.443-1.292-8.896-3.877c-0.445-0.469-0.445-1.229,0-1.697c0.444-0.469,1.165-0.469,1.609,0
	c4.018,4.234,10.555,4.234,14.572,0c0.444-0.469,1.165-0.469,1.61,0C34.966,27.97,34.966,28.729,34.521,29.198z"/>
</svg>
