<?xml version="1.0" encoding="utf-8"?>
<!-- Generator: Adobe Illustrator 15.1.0, SVG Export Plug-In . SVG Version: 6.00 Build 0)  -->
<!DOCTYPE svg PUBLIC "-//W3C//DTD SVG 1.1//EN" "http://www.w3.org/Graphics/SVG/1.1/DTD/svg11.dtd">
<svg version="1.1" id="Layer_1" xmlns="http://www.w3.org/2000/svg" xmlns:xlink="http://www.w3.org/1999/xlink" x="0px" y="0px"
	 width="75px" height="75px" viewBox="0 0 75 75" enable-background="new 0 0 75 75" xml:space="preserve">
<g>
	<path d="M26.999,52.128v2.538h2.935v-2.538h0.792v6.067h-0.792v-2.845h-2.935v2.845h-0.783v-6.067H26.999z"/>
	<path d="M35.226,55.351h-2.359v2.188h2.629v0.657h-3.412v-6.067h3.277v0.657h-2.494v1.917h2.359V55.351z"/>
	<path d="M36.512,52.128h0.783v5.41h2.593v0.657h-3.376V52.128z"/>
	<path d="M40.76,52.199c0.378-0.062,0.873-0.117,1.503-0.117c0.774,0,1.342,0.181,1.702,0.505c0.332,0.288,0.531,0.729,0.531,1.27
		c0,0.549-0.162,0.98-0.469,1.296c-0.414,0.441-1.09,0.666-1.854,0.666c-0.233,0-0.45-0.009-0.63-0.054v2.431H40.76V52.199z
		 M41.543,55.125c0.171,0.046,0.387,0.063,0.648,0.063c0.945,0,1.521-0.459,1.521-1.297c0-0.801-0.568-1.188-1.432-1.188
		c-0.342,0-0.604,0.026-0.738,0.062V55.125z"/>
	<path d="M51.255,58.195c-0.171-0.171-0.333-0.342-0.567-0.594c-0.521,0.485-1.107,0.692-1.773,0.692
		c-1.18,0-1.863-0.792-1.863-1.701c0-0.828,0.495-1.396,1.188-1.773v-0.027c-0.314-0.396-0.504-0.837-0.504-1.27
		c0-0.737,0.531-1.494,1.54-1.494c0.756,0,1.341,0.504,1.341,1.287c0,0.64-0.369,1.144-1.332,1.621v0.026
		c0.514,0.595,1.09,1.261,1.477,1.693c0.279-0.424,0.469-1.009,0.585-1.774h0.72c-0.162,0.955-0.422,1.711-0.873,2.242
		c0.324,0.342,0.64,0.685,1,1.071H51.255z M50.301,57.151c-0.36-0.396-1.035-1.135-1.711-1.909
		c-0.324,0.207-0.783,0.595-0.783,1.233c0,0.693,0.514,1.225,1.242,1.225C49.571,57.7,50.013,57.466,50.301,57.151z M48.455,53.451
		c0,0.432,0.197,0.765,0.459,1.089c0.612-0.351,1.008-0.675,1.008-1.188c0-0.369-0.207-0.783-0.701-0.783
		C48.716,52.568,48.455,52.982,48.455,53.451z"/>
	<path d="M21.14,68.041c0.351,0.216,0.864,0.396,1.404,0.396c0.801,0,1.27-0.423,1.27-1.035c0-0.566-0.324-0.891-1.144-1.206
		c-0.99-0.352-1.602-0.864-1.602-1.72c0-0.945,0.783-1.647,1.962-1.647c0.621,0,1.071,0.145,1.341,0.297l-0.216,0.64
		c-0.198-0.108-0.604-0.288-1.152-0.288c-0.829,0-1.144,0.495-1.144,0.909c0,0.567,0.369,0.847,1.207,1.17
		c1.026,0.396,1.548,0.892,1.548,1.783c0,0.936-0.693,1.746-2.125,1.746c-0.585,0-1.225-0.171-1.549-0.387L21.14,68.041z"/>
	<path d="M28.827,66.15h-2.359v2.188h2.629v0.657h-3.412v-6.067h3.277v0.657h-2.494v1.917h2.359V66.15z"/>
	<path d="M31.409,63.594h-1.845v-0.666h4.492v0.666h-1.854v5.401h-0.792V63.594z"/>
	<path d="M36.224,63.594h-1.845v-0.666h4.492v0.666h-1.854v5.401h-0.792V63.594z"/>
	<path d="M40.328,62.928v6.067h-0.783v-6.067H40.328z"/>
	<path d="M41.695,68.995v-6.067h0.855l1.945,3.069c0.449,0.711,0.801,1.351,1.089,1.972l0.019-0.009
		c-0.072-0.811-0.09-1.549-0.09-2.494v-2.538h0.738v6.067h-0.793l-1.927-3.079c-0.423-0.675-0.828-1.368-1.134-2.025l-0.027,0.009
		c0.045,0.766,0.062,1.494,0.062,2.503v2.593H41.695z"/>
	<path d="M52.236,68.725c-0.352,0.126-1.045,0.334-1.863,0.334c-0.919,0-1.675-0.234-2.27-0.802
		c-0.521-0.504-0.846-1.314-0.846-2.26c0.009-1.81,1.252-3.133,3.285-3.133c0.703,0,1.252,0.153,1.514,0.279l-0.189,0.639
		c-0.324-0.144-0.729-0.261-1.342-0.261c-1.477,0-2.439,0.918-2.439,2.439c0,1.54,0.928,2.449,2.341,2.449
		c0.513,0,0.864-0.072,1.044-0.162v-1.81h-1.232v-0.63h1.998V68.725z"/>
	<path d="M53.324,68.041c0.351,0.216,0.863,0.396,1.404,0.396c0.801,0,1.27-0.423,1.27-1.035c0-0.566-0.324-0.891-1.145-1.206
		c-0.99-0.352-1.602-0.864-1.602-1.72c0-0.945,0.783-1.647,1.963-1.647c0.621,0,1.07,0.145,1.341,0.297l-0.216,0.64
		c-0.198-0.108-0.604-0.288-1.152-0.288c-0.828,0-1.144,0.495-1.144,0.909c0,0.567,0.369,0.847,1.206,1.17
		c1.026,0.396,1.549,0.892,1.549,1.783c0,0.936-0.693,1.746-2.125,1.746c-0.585,0-1.225-0.171-1.549-0.387L53.324,68.041z"/>
</g>
<g>
	<g>
		<path d="M37.92,10c-10.59,0-19.17,8.58-19.17,19.17c0,10.58,8.58,19.16,19.17,19.16c10.58,0,19.16-8.58,19.16-19.16
			C57.08,18.58,48.5,10,37.92,10z M38.09,41.63c-1.15,0-1.94-0.89-1.94-2.05c0-1.22,0.82-2.08,1.98-2.08c1.15,0,1.94,0.86,1.94,2.08
			C40.07,40.74,39.31,41.63,38.09,41.63z M41.29,29.25c-1.45,1.72-1.98,3.17-1.88,4.85l0.04,0.86h-2.58l-0.06-0.86
			c-0.2-1.78,0.39-3.73,2.04-5.71c1.49-1.75,2.311-3.04,2.311-4.52c0-1.68-1.05-2.81-3.13-2.84c-1.19,0-2.51,0.4-3.34,1.02
			l-0.79-2.07c1.09-0.8,2.97-1.33,4.72-1.33c3.8,0,5.51,2.35,5.51,4.86C44.13,25.75,42.88,27.37,41.29,29.25z"/>
	</g>
</g>
</svg>
