<?xml version="1.0" encoding="utf-8"?>
<!-- Generator: Adobe Illustrator 16.0.0, SVG Export Plug-In . SVG Version: 6.00 Build 0)  -->
<!DOCTYPE svg PUBLIC "-//W3C//DTD SVG 1.1//EN" "http://www.w3.org/Graphics/SVG/1.1/DTD/svg11.dtd">
<svg version="1.1" id="Layer_1" xmlns="http://www.w3.org/2000/svg" xmlns:xlink="http://www.w3.org/1999/xlink" x="0px" y="0px"
	 width="35.062px" height="16.822px" viewBox="0 0 35.062 16.822" enable-background="new 0 0 35.062 16.822" xml:space="preserve">
<g>
	<g>
		<g>
			<rect x="0.5" y="0.5" fill="#F7F8F8" stroke="#010101" stroke-miterlimit="10" width="34.062" height="15.822"/>
		</g>
	</g>
	<g enable-background="new    ">
		<path d="M14.419,12.415V11.35c-0.611-0.011-1.244-0.2-1.613-0.464l0.253-0.706c0.379,0.253,0.928,0.453,1.518,0.453
			c0.749,0,1.255-0.433,1.255-1.033c0-0.58-0.411-0.938-1.191-1.255c-1.076-0.422-1.74-0.907-1.74-1.824
			c0-0.875,0.622-1.539,1.592-1.697V3.758h0.653v1.023c0.633,0.021,1.065,0.189,1.371,0.368l-0.264,0.696
			C16.032,5.72,15.6,5.487,14.925,5.487c-0.812,0-1.118,0.485-1.118,0.907c0,0.548,0.39,0.822,1.308,1.201
			c1.086,0.443,1.634,0.991,1.634,1.93c0,0.833-0.58,1.613-1.666,1.793v1.097H14.419z"/>
		<path d="M19.83,12.415V11.35c-0.611-0.011-1.244-0.2-1.613-0.464l0.253-0.706c0.38,0.253,0.928,0.453,1.519,0.453
			c0.748,0,1.254-0.433,1.254-1.033c0-0.58-0.41-0.938-1.191-1.255c-1.075-0.422-1.739-0.907-1.739-1.824
			c0-0.875,0.622-1.539,1.593-1.697V3.758h0.652v1.023c0.633,0.021,1.065,0.189,1.371,0.368l-0.264,0.696
			c-0.221-0.126-0.653-0.358-1.328-0.358c-0.812,0-1.117,0.485-1.117,0.907c0,0.548,0.39,0.822,1.307,1.201
			c1.086,0.443,1.635,0.991,1.635,1.93c0,0.833-0.58,1.613-1.666,1.793v1.097H19.83z"/>
	</g>
</g>
</svg>
