<?xml version="1.0" encoding="utf-8"?>
<!-- Generator: Adobe Illustrator 15.1.0, SVG Export Plug-In . SVG Version: 6.00 Build 0)  -->
<!DOCTYPE svg PUBLIC "-//W3C//DTD SVG 1.1//EN" "http://www.w3.org/Graphics/SVG/1.1/DTD/svg11.dtd">
<svg version="1.1" id="Layer_1" xmlns="http://www.w3.org/2000/svg" xmlns:xlink="http://www.w3.org/1999/xlink" x="0px" y="0px"
	 width="75px" height="75px" viewBox="0 0 75 75" enable-background="new 0 0 75 75" xml:space="preserve">
<g>
	<circle fill="#202020" cx="37.938" cy="30.163" r="19.201"/>
	<circle fill="#E3E3E3" cx="37.938" cy="26.097" r="6.717"/>
	<circle fill="#202020" cx="39.057" cy="26.097" r="2.825"/>
	<path fill="#202020" d="M21.956,21.575c0,0-7.015-3.393-4.054-11.385c0,0,1.892,7.605,7.605,7.605L21.956,21.575z"/>
	<path fill="#202020" d="M52.355,21.575c0,0,7.015-3.393,4.055-11.385c0,0-1.893,7.605-7.605,7.605L52.355,21.575z"/>
	<g>
		<g>
			<path fill="#202020" d="M26.086,59.895c-0.045-0.846-0.099-1.862-0.09-2.619h-0.027c-0.207,0.711-0.459,1.468-0.765,2.306
				l-1.071,2.942h-0.594l-0.981-2.89c-0.288-0.854-0.531-1.639-0.702-2.358h-0.018c-0.018,0.757-0.063,1.773-0.117,2.684
				l-0.162,2.602H20.81l0.423-6.066h0.999l1.036,2.936c0.252,0.746,0.459,1.412,0.612,2.043h0.027
				c0.153-0.613,0.369-1.279,0.639-2.043l1.08-2.936h1l0.378,6.066h-0.765L26.086,59.895z"/>
			<path fill="#202020" d="M33.394,59.463c0,2.088-1.269,3.195-2.818,3.195c-1.603,0-2.728-1.242-2.728-3.078
				c0-1.928,1.197-3.188,2.818-3.188C32.322,56.393,33.394,57.662,33.394,59.463z M28.685,59.562c0,1.295,0.703,2.457,1.936,2.457
				c1.242,0,1.944-1.144,1.944-2.521c0-1.205-0.63-2.467-1.936-2.467C29.333,57.031,28.685,58.229,28.685,59.562z"/>
			<path fill="#202020" d="M34.409,62.561v-6.067h0.855l1.944,3.069c0.45,0.711,0.801,1.351,1.09,1.972l0.019-0.009
				c-0.072-0.812-0.09-1.549-0.09-2.494v-2.538h0.737v6.067h-0.793l-1.926-3.08c-0.423-0.674-0.829-1.367-1.135-2.024l-0.027,0.009
				c0.045,0.766,0.063,1.495,0.063,2.503v2.593H34.409L34.409,62.561z"/>
			<path fill="#202020" d="M40.223,61.605c0.353,0.215,0.865,0.396,1.404,0.396c0.803,0,1.27-0.424,1.27-1.035
				c0-0.567-0.323-0.893-1.143-1.207c-0.99-0.352-1.604-0.864-1.604-1.72c0-0.945,0.783-1.646,1.963-1.646
				c0.621,0,1.072,0.145,1.342,0.297l-0.217,0.64c-0.197-0.108-0.604-0.288-1.151-0.288c-0.829,0-1.144,0.495-1.144,0.909
				c0,0.567,0.369,0.847,1.207,1.171c1.024,0.396,1.548,0.891,1.548,1.781c0,0.938-0.693,1.746-2.124,1.746
				c-0.586,0-1.225-0.17-1.549-0.387L40.223,61.605z"/>
			<path fill="#202020" d="M45.92,57.158h-1.845v-0.666h4.491v0.666h-1.854v5.4H45.92V57.158z"/>
			<path fill="#202020" d="M52.383,59.715h-2.359v2.188h2.629v0.658H49.24v-6.067h3.277v0.655h-2.494v1.918h2.358L52.383,59.715
				L52.383,59.715z"/>
			<path fill="#202020" d="M53.669,56.572c0.396-0.08,0.964-0.125,1.503-0.125c0.838,0,1.378,0.152,1.756,0.494
				c0.307,0.271,0.479,0.685,0.479,1.151c0,0.802-0.506,1.333-1.145,1.55v0.026c0.469,0.162,0.748,0.595,0.893,1.226
				c0.197,0.846,0.342,1.432,0.468,1.664h-0.812c-0.099-0.17-0.232-0.692-0.403-1.449c-0.181-0.836-0.505-1.151-1.216-1.18h-0.738
				v2.629H53.67L53.669,56.572L53.669,56.572z M54.452,59.336h0.802c0.837,0,1.368-0.459,1.368-1.152
				c0-0.783-0.567-1.125-1.396-1.134c-0.379,0-0.648,0.036-0.774,0.072V59.336z"/>
		</g>
	</g>
</g>
</svg>
