<?xml version="1.0" encoding="utf-8"?>
<!-- Generator: Adobe Illustrator 15.1.0, SVG Export Plug-In . SVG Version: 6.00 Build 0)  -->
<!DOCTYPE svg PUBLIC "-//W3C//DTD SVG 1.1//EN" "http://www.w3.org/Graphics/SVG/1.1/DTD/svg11.dtd">
<svg version="1.1" id="Layer_1" xmlns="http://www.w3.org/2000/svg" xmlns:xlink="http://www.w3.org/1999/xlink" x="0px" y="0px"
	 width="75px" height="75px" viewBox="0 0 75 75" enable-background="new 0 0 75 75" xml:space="preserve">
<g>
	<g>
		<g>
			<circle fill="#202020" cx="37.5" cy="29.777" r="19.201"/>
		</g>
		<polygon fill="#E3E3E3" points="33.245,22.945 45.08,29.777 33.245,36.609 		"/>
	</g>
	<g>
		<g>
			<path fill="#202020" d="M30.778,59.51c-0.045-0.847-0.099-1.863-0.09-2.619h-0.027c-0.207,0.711-0.459,1.467-0.765,2.305
				l-1.071,2.943H28.23l-0.981-2.891c-0.288-0.855-0.531-1.639-0.702-2.357h-0.018c-0.018,0.756-0.063,1.772-0.117,2.683
				l-0.162,2.602h-0.748l0.423-6.067h0.999l1.036,2.936c0.252,0.748,0.459,1.414,0.612,2.044H28.6
				c0.153-0.612,0.369-1.278,0.639-2.044l1.08-2.936h1l0.378,6.067h-0.765L30.778,59.51z"/>
			<path fill="#202020" d="M38.086,59.078c0,2.088-1.269,3.195-2.818,3.195c-1.603,0-2.728-1.242-2.728-3.08
				c0-1.926,1.197-3.187,2.818-3.187C37.015,56.008,38.086,57.277,38.086,59.078z M33.377,59.176c0,1.297,0.703,2.459,1.936,2.459
				c1.242,0,1.944-1.145,1.944-2.521c0-1.206-0.63-2.468-1.936-2.468C34.026,56.646,33.377,57.844,33.377,59.176z"/>
			<path fill="#202020" d="M40.434,62.174l-1.979-6.066H39.3l0.945,2.988c0.261,0.818,0.485,1.557,0.647,2.27h0.019
				c0.171-0.702,0.423-1.469,0.692-2.26l1.026-2.998h0.837l-2.169,6.066H40.434z"/>
			<path fill="#202020" d="M44.906,56.105v6.067h-0.783v-6.067H44.906z"/>
			<path fill="#202020" d="M49.416,59.33h-2.357v2.188h2.629v0.656h-3.412v-6.066h3.276v0.656h-2.493v1.918h2.357V59.33z"/>
		</g>
	</g>
</g>
</svg>
