<?xml version="1.0" encoding="utf-8"?>
<!-- Generator: Adobe Illustrator 16.0.0, SVG Export Plug-In . SVG Version: 6.00 Build 0)  -->
<!DOCTYPE svg PUBLIC "-//W3C//DTD SVG 1.1//EN" "http://www.w3.org/Graphics/SVG/1.1/DTD/svg11.dtd">
<svg version="1.1" id="Layer_1" xmlns="http://www.w3.org/2000/svg" xmlns:xlink="http://www.w3.org/1999/xlink" x="0px" y="0px"
	 width="21.75px" height="16.771px" viewBox="0 0 21.75 16.771" enable-background="new 0 0 21.75 16.771" xml:space="preserve">
<g>
	<rect x="0.5" y="0.521" fill="#F7F8F8" stroke="#010101" stroke-miterlimit="10" width="20.794" height="15.821"/>
	<g>
		<g enable-background="new    ">
			<path d="M4.734,11.667V4.241h1.046l2.38,3.757c0.551,0.871,0.98,1.653,1.333,2.413L9.516,10.4
				c-0.088-0.992-0.11-1.896-0.11-3.052V4.241h0.903v7.426H9.339L6.982,7.899C6.464,7.073,5.968,6.224,5.594,5.421L5.561,5.431
				C5.616,6.368,5.638,7.26,5.638,8.494v3.173H4.734z"/>
			<path d="M13.188,9.331l-0.771,2.336h-0.992l2.523-7.426h1.156l2.533,7.426h-1.023l-0.793-2.336H13.188z M15.623,8.582
				l-0.727-2.137C14.73,5.96,14.621,5.519,14.511,5.09h-0.022c-0.109,0.44-0.23,0.893-0.375,1.344l-0.727,2.148H15.623z"/>
		</g>
	</g>
</g>
</svg>
