<?xml version="1.0" encoding="utf-8"?>
<!-- Generator: Adobe Illustrator 16.0.0, SVG Export Plug-In . SVG Version: 6.00 Build 0)  -->
<!DOCTYPE svg PUBLIC "-//W3C//DTD SVG 1.1//EN" "http://www.w3.org/Graphics/SVG/1.1/DTD/svg11.dtd">
<svg version="1.1" id="Layer_1" xmlns="http://www.w3.org/2000/svg" xmlns:xlink="http://www.w3.org/1999/xlink" x="0px" y="0px"
	 width="33.609px" height="33.609px" viewBox="0 0 33.609 33.609" enable-background="new 0 0 33.609 33.609" xml:space="preserve">
<g enable-background="new    ">
	<path fill="#F7F7F7" d="M14.767,10.702c0,4.818-2.533,7.21-5.487,7.21c-2.849,0-5.312-2.286-5.346-6.894
		c0-4.572,2.497-7.141,5.521-7.141C12.656,3.879,14.767,6.341,14.767,10.702z M6.396,10.913c-0.07,2.919,1.02,5.135,2.955,5.135
		c2.04,0,2.954-2.181,2.954-5.205c0-2.777-0.81-5.101-2.954-5.101C7.416,5.742,6.396,8.03,6.396,10.913z M9.069,27.514L22.504,3.879
		h1.971L11.038,27.514H9.069z M29.645,20.163c0,4.818-2.533,7.21-5.452,7.21c-2.85,0-5.312-2.286-5.347-6.857
		c0-4.607,2.497-7.176,5.521-7.176C27.569,13.34,29.645,15.802,29.645,20.163z M21.274,20.374c-0.035,2.919,1.09,5.135,2.989,5.135
		c2.04,0,2.953-2.181,2.953-5.204c0-2.778-0.809-5.101-2.953-5.101C22.328,15.204,21.274,17.49,21.274,20.374z"/>
</g>
</svg>
