<?xml version="1.0" encoding="utf-8"?>
<!-- Generator: Adobe Illustrator 16.0.0, SVG Export Plug-In . SVG Version: 6.00 Build 0)  -->
<!DOCTYPE svg PUBLIC "-//W3C//DTD SVG 1.1//EN" "http://www.w3.org/Graphics/SVG/1.1/DTD/svg11.dtd">
<svg version="1.1" id="Layer_1" xmlns="http://www.w3.org/2000/svg" xmlns:xlink="http://www.w3.org/1999/xlink" x="0px" y="0px"
	 width="15.965px" height="13.813px" viewBox="0 0 15.965 13.813" enable-background="new 0 0 15.965 13.813" xml:space="preserve">
<g>
	<rect fill="#020202" width="15.965" height="13.813"/>
	<g>
		<rect x="0.694" y="0.694" fill="#FFFFFF" width="14.577" height="12.412"/>
		<path fill="#020202" d="M7.636,11.939c0.541,0,1-0.028,1.596-0.097c1.056-0.153,2.221-0.485,3.513-0.485l0.026-2.402
			c0-0.248-0.097-0.792,1.224-0.792V7.122c-0.792,0.071-1.708,0.043-2.624,0.043c-0.986,0-1.93,0.028-3.456-0.015v0.985
			c2.122-0.015,1.942,0.126,1.956,0.819c0.027,1.166,0.041,1.277-0.082,1.387c-0.335,0.35-1.266,0.487-1.765,0.487
			c-2.54,0-3.026-2.013-3.026-3.636c0-1.931,0.264-4.07,3.207-4.07c2.11,0,2.292,0.403,2.637,2.014l1.667,0.056l-0.069-2.749
			c-1.666-0.222-2.75-0.417-4.235-0.417c-4.595,0-6.357,1.512-6.357,5.124C1.847,10.274,3.623,11.939,7.636,11.939z"/>
	</g>
</g>
</svg>
