<?xml version="1.0" encoding="utf-8"?>
<!-- Generator: Adobe Illustrator 16.0.0, SVG Export Plug-In . SVG Version: 6.00 Build 0)  -->
<!DOCTYPE svg PUBLIC "-//W3C//DTD SVG 1.1//EN" "http://www.w3.org/Graphics/SVG/1.1/DTD/svg11.dtd">
<svg version="1.1" id="Layer_1" xmlns="http://www.w3.org/2000/svg" xmlns:xlink="http://www.w3.org/1999/xlink" x="0px" y="0px"
	 width="47.193px" height="14.514px" viewBox="0 0 47.193 14.514" enable-background="new 0 0 47.193 14.514" xml:space="preserve">
<g>
	
		<rect x="0.35" y="0.35" fill="#F7F7F7" stroke="#000000" stroke-width="0.7" stroke-miterlimit="10" width="46.493" height="13.814"/>
	<g id="g3" transform="matrix(0.957635,0,0,0.957635,1.783298,0.45254)">
		<path id="path5" fill="#010101" d="M6.826,11.79c-0.041,0.067-0.109,0.11-0.233,0.11H3.895c-0.11,0-0.245-0.028-0.177-0.261
			l0.082-0.26c0.054-0.181,0.165-0.193,0.259-0.219c0.343-0.069,0.7-0.315,0.7-0.902V3.983c-0.247-0.288-0.782-0.685-1.26-0.889
			C3.237,2.997,3.21,2.875,3.266,2.737l0.11-0.315c0.041-0.054,0.109-0.11,0.232-0.11h3.437c0.343,0.026,0.521,0.274,0.766,0.564
			l4.178,5.53h0.027V3.956c0-0.673-0.207-0.766-0.878-0.931c-0.177-0.029-0.206-0.165-0.151-0.289l0.11-0.315
			c0.041-0.068,0.111-0.11,0.234-0.11h2.699c0.109,0,0.245,0.026,0.177,0.261l-0.082,0.259c-0.055,0.18-0.164,0.194-0.261,0.219
			c-0.342,0.069-0.698,0.317-0.698,0.906v7.491c0,0.274-0.124,0.453-0.37,0.453h-1.589c-0.068,0-0.15-0.096-0.576-0.618L5.936,4.943
			H5.908v5.314c0,0.67,0.205,0.766,0.876,0.929c0.178,0.028,0.205,0.164,0.15,0.289L6.826,11.79z"/>
		<path id="path7" fill="#010101" d="M22.859,11.16c-0.083,0.181-0.138,0.343-0.273,0.436c-0.33,0.261-1.192,0.468-2.397,0.468
			c-3.396,0-5.533-2.056-5.533-5.042c0-2.682,2.246-4.875,5.424-4.875c1.424,0,2.78,0.453,3.232,0.781
			c0.055,0.04,0.067,0.097,0.067,0.192v1.028c0,0.067-0.055,0.163-0.11,0.193l-0.547,0.324c-0.204,0.14-0.972-1.518-2.671-1.518
			c-1.67,0-2.41,1.537-2.41,3.767c0,2.741,1.122,3.918,2.984,3.918c0.562,0,1.672-0.286,2.249-1.122
			c0.149-0.221,0.533,0.052,0.478,0.163L22.859,11.16z"/>
		<path id="path9" fill="#010101" d="M23.695,7.693v-1.26h3.41v1.26H23.695z"/>
		<path id="path11" fill="#010101" d="M32.541,10.09c0,0.413,0.207,0.631,0.342,0.741c0.508,0.367,1.686,0.164,1.48,0.521
			l-0.205,0.354c-0.109,0.219-0.356,0.194-0.629,0.194h-4.78c-0.371,0-0.769,0.056-0.644-0.261l0.151-0.382
			c0.096-0.206,0.959-0.152,1.191-0.344c0.177-0.123,0.495-0.327,0.495-0.823V4.368c0-0.714-0.74-0.535-1.452-0.303l-0.301,0.109
			c-0.098,0.029-0.179,0-0.22-0.123l-0.082-0.439c-0.041-0.123-0.041-0.245,0.097-0.301l4.558-1.165V10.09z"/>
		<path id="path13" fill="#010101" d="M37.755,4.393c-0.918,0-1.097,1.124-1.342,0.931l-0.194-0.147
			c-0.039-0.058-0.067-0.126-0.067-0.194l-0.014-2.369c0-0.247,0.11-0.303,0.383-0.303h5.794v0.917
			c-0.7,1.549-3.302,6.85-4.122,8.672h-2.396c1.356-2.07,3.753-6.231,4.395-7.508H37.755L37.755,4.393z"/>
	</g>
</g>
</svg>
