<?xml version="1.0" encoding="utf-8"?>
<!-- Generator: Adobe Illustrator 16.0.0, SVG Export Plug-In . SVG Version: 6.00 Build 0)  -->
<!DOCTYPE svg PUBLIC "-//W3C//DTD SVG 1.1//EN" "http://www.w3.org/Graphics/SVG/1.1/DTD/svg11.dtd">
<svg version="1.1" id="Layer_1" xmlns="http://www.w3.org/2000/svg" xmlns:xlink="http://www.w3.org/1999/xlink" x="0px" y="0px"
	 width="49.457px" height="13.813px" viewBox="0 0 49.457 13.813" enable-background="new 0 0 49.457 13.813" xml:space="preserve">
<g>
	<rect fill="#F7F7F7" width="49.457" height="13.813"/>
	<g>
		<path fill="#020202" d="M42.359,10.688c-1.123,0-0.967-1.02-1.036-1.244c-0.035-0.553-0.138-0.706-0.862-0.706h-0.812
			c-0.811,0-0.829,0.481-0.829,0.827c0.019,1.833,1.936,2.177,3.835,2.177c2.174,0,3.831-0.742,3.831-2.643
			c0-1.156-0.412-1.728-1.466-2.107c0.984-0.396,1.277-1.104,1.277-1.778c0-1.294-0.984-2.332-4.006-2.332
			c-2.159,0-3.178,0.726-3.301,2.091c-0.102,0.431,0.175,0.761,0.727,0.761l0.848-0.018c0.346,0.053,0.948-0.258,0.879-0.76
			c0-0.415,0.069-0.985,0.932-0.985c0.762,0,0.969,0.397,0.969,1.054c0,0.984-0.362,1.502-1.244,1.482l-1.276-0.016v1.16l1.276-0.07
			c1.09-0.051,1.4,0.672,1.4,1.416C43.5,9.738,43.447,10.688,42.359,10.688z"/>
		<path fill="#020202" d="M34.089,9.808c0,0.5-0.349,0.604-0.537,0.657c-0.345,0.103-1.398,0.206-1.848,0.172v1.036
			c1.382-0.017,2.436,0,3.472,0c1.017,0,2.071-0.017,3.419,0v-1.07c-1.658,0-1.831-0.087-1.831-0.776V3.039h-2.245
			c-0.758,0.706-1.709,1.242-3.143,1.59v1.315C31.8,5.69,33.56,5.063,34.089,4.766V9.808z"/>
		<rect x="26.542" y="7.028" fill="#020202" width="4.472" height="2.07"/>
		<path fill="#020202" d="M18.752,11.794c0.554,0,1.002-0.018,1.574-0.104c1.035-0.138,2.174-0.469,3.454-0.469l0.034-2.345
			c0-0.262-0.122-0.797,1.174-0.797V7.062c-0.761,0.068-1.658,0.034-2.573,0.034c-0.968,0-1.882,0.034-3.402-0.017v0.984
			c2.106-0.02,1.933,0.104,1.951,0.812c0.017,1.137,0.017,1.259-0.087,1.362c-0.328,0.328-1.243,0.467-1.726,0.467
			c-2.505,0-2.987-1.968-2.987-3.575c0-1.883,0.276-3.988,3.177-3.988c2.038,0,2.229,0.379,2.556,1.951l1.657,0.07l-0.067-2.679
			c-1.642-0.224-2.712-0.413-4.145-0.413c-4.542,0-6.285,1.465-6.285,5.008C13.056,10.152,14.816,11.794,18.752,11.794z"/>
		<path fill="#020202" d="M49.457,0H0v13.813h49.457V0z M48.748,13.106H0.692V0.689h48.056V13.106z"/>
		<path fill="#020202" d="M4.161,4.039v5.753c0,0.585,0.122,0.827-1.294,0.827v1.071h5.714v-1.071c-1.569,0-1.501-0.104-1.501-0.812
			V7.908c0.363,0.02,0.726,0.02,1.244,0c2.727-0.102,4.178-0.726,4.178-3.073c0-1.97-0.966-2.573-3.384-2.592
			c-1.693-0.016-5.335,0.054-6.319,0v1.038C4.265,3.281,4.161,3.471,4.161,4.039z M7.08,3.537h0.466c1.45,0,1.831,0.502,1.831,1.505
			c0,1.28-0.674,2.038-2.297,2.003V3.537z"/>
	</g>
</g>
</svg>
