<?xml version="1.0" encoding="utf-8"?>
<!-- Generator: Adobe Illustrator 16.0.0, SVG Export Plug-In . SVG Version: 6.00 Build 0)  -->
<!DOCTYPE svg PUBLIC "-//W3C//DTD SVG 1.1//EN" "http://www.w3.org/Graphics/SVG/1.1/DTD/svg11.dtd">
<svg version="1.1" id="Layer_1" xmlns="http://www.w3.org/2000/svg" xmlns:xlink="http://www.w3.org/1999/xlink" x="0px" y="0px"
	 width="26.283px" height="13.813px" viewBox="0 0 26.283 13.813" enable-background="new 0 0 26.283 13.813" xml:space="preserve">
<g>
	<rect fill="#F7F7F7" width="26.283" height="13.813"/>
	<g>
		<path fill="#020202" d="M3.009,4.006v5.855c0,0.609,0.139,0.875-1.304,0.875v1.081h5.812v-1.081c-1.608,0-1.511-0.126-1.511-0.861
			V7.961c0.359,0.014,0.734,0.014,1.261,0c2.774-0.126,4.258-0.749,4.258-3.12c0-2.014-0.984-2.651-3.466-2.678
			c-1.707-0.016-5.424,0.056-6.424,0v1.08C3.135,3.243,3.009,3.427,3.009,4.006z M6.006,3.312H6.49c1.458,0,1.845,0.514,1.845,1.555
			c0,1.288-0.694,2.066-2.329,2.026V3.312z"/>
		<path fill="#020202" d="M18.254,11.913c0.54,0,1.012,0,1.594-0.096c1.068-0.152,2.22-0.473,3.523-0.473l0.041-2.398
			c0-0.267-0.125-0.821,1.207-0.821V7.088c-0.791,0.069-1.721,0.051-2.635,0.051c-0.986,0-1.93,0.019-3.453-0.012v0.984
			c2.135-0.013,1.968,0.126,1.982,0.835c0.014,1.135,0.014,1.288-0.111,1.372c-0.32,0.349-1.262,0.485-1.761,0.485
			c-2.552,0-3.039-2.01-3.039-3.646c0-1.931,0.278-4.08,3.219-4.08c2.108,0,2.304,0.402,2.649,2.011l1.662,0.07l-0.054-2.746
			c-1.663-0.223-2.76-0.416-4.258-0.416c-4.591,0-6.366,1.524-6.366,5.131C12.455,10.247,14.244,11.913,18.254,11.913z"/>
		<path fill="#020202" d="M26.283,0H0v13.813h26.283V0z M25.59,13.118H0.692V0.692H25.59V13.118z"/>
	</g>
</g>
</svg>
