<?xml version="1.0" encoding="utf-8"?>
<!-- Generator: Adobe Illustrator 16.0.0, SVG Export Plug-In . SVG Version: 6.00 Build 0)  -->
<!DOCTYPE svg PUBLIC "-//W3C//DTD SVG 1.1//EN" "http://www.w3.org/Graphics/SVG/1.1/DTD/svg11.dtd">
<svg version="1.1" id="Layer_1" xmlns="http://www.w3.org/2000/svg" xmlns:xlink="http://www.w3.org/1999/xlink" x="0px" y="0px"
	 width="15.966px" height="13.813px" viewBox="0 0 15.966 13.813" enable-background="new 0 0 15.966 13.813" xml:space="preserve">
<g>
	<rect fill="#F7F7F7" width="15.271" height="13.105"/>
	<g>
		<path fill="#020202" d="M15.966,0H0v13.813h15.966V0z M15.271,13.105H0.693V0.693h14.579V13.105z"/>
		<path fill="#020202" d="M2.664,10.428l-0.013,1.08c0.999-0.057,4.707-0.057,5.804,0l-0.028-1.066
			c-1.624,0.04-1.471-0.306-1.471-0.792V7.511l2.012,2.332c0.39,0.445,0.71,1.001,1.098,1.64c3.706,0,4.164,0.025,4.164,0.025v-1.04
			c-1.193-0.109-1.388-0.224-1.804-0.709L9.857,6.75c1.596-0.195,2.596-1.03,2.581-2.376c-0.013-2.36-2.164-2.263-4.441-2.306
			C7.233,2.055,3.624,2.081,2.651,2.081l0.013,1.085c1.487,0,1.362,0.137,1.362,0.722v5.762C4.026,10.025,4.22,10.536,2.664,10.428z
			 M6.956,3.249C7.177,3.234,7.371,3.205,7.58,3.205c1.096,0,1.792,0.419,1.792,1.323H9.357c0.014,1.234-1.029,1.597-2.402,1.636
			V3.249z"/>
	</g>
</g>
</svg>
