<?xml version="1.0" encoding="utf-8"?>
<!-- Generator: Adobe Illustrator 16.0.0, SVG Export Plug-In . SVG Version: 6.00 Build 0)  -->
<!DOCTYPE svg PUBLIC "-//W3C//DTD SVG 1.1//EN" "http://www.w3.org/Graphics/SVG/1.1/DTD/svg11.dtd">
<svg version="1.1" id="Layer_1" xmlns="http://www.w3.org/2000/svg" xmlns:xlink="http://www.w3.org/1999/xlink" x="0px" y="0px"
	 width="41.288px" height="27.222px" viewBox="0 0 41.288 27.222" enable-background="new 0 0 41.288 27.222" xml:space="preserve">
<g>
	<g>
		<polygon fill="#F7F8F8" stroke="#010101" stroke-miterlimit="10" points="33.149,14.861 39.823,9.702 31.704,9.702 28.997,1.581 
			26.29,9.702 18.169,9.702 24.852,14.84 22.229,23.235 29.007,18.038 35.768,23.235 		"/>
	</g>
	<g>
		<polygon fill="#F7F8F8" stroke="#010101" stroke-miterlimit="10" points="16.451,14.861 23.125,9.702 15.005,9.702 12.298,1.581 
			9.591,9.702 1.471,9.702 8.153,14.84 5.531,23.235 12.309,18.038 19.07,23.235 		"/>
	</g>
	<g>
		<polygon fill="#F7F8F8" stroke="#010101" stroke-miterlimit="10" points="24.979,17.487 31.653,12.328 23.534,12.328 
			20.827,4.207 18.12,12.328 10,12.328 16.682,17.466 14.06,25.861 20.837,20.664 27.598,25.861 		"/>
	</g>
</g>
</svg>
