<?xml version="1.0" encoding="utf-8"?>
<!-- Generator: Adobe Illustrator 16.0.0, SVG Export Plug-In . SVG Version: 6.00 Build 0)  -->
<!DOCTYPE svg PUBLIC "-//W3C//DTD SVG 1.1//EN" "http://www.w3.org/Graphics/SVG/1.1/DTD/svg11.dtd">
<svg version="1.1" id="Layer_1" xmlns="http://www.w3.org/2000/svg" xmlns:xlink="http://www.w3.org/1999/xlink" x="0px" y="0px"
	 width="31.41px" height="28.583px" viewBox="0 0 31.41 28.583" enable-background="new 0 0 31.41 28.583" xml:space="preserve">
<path fill="#F6F7F7" stroke="#000000" stroke-miterlimit="10" d="M29.212,6.596H17.038l4.987-4.988
	c0.17-0.169,0.275-0.406,0.275-0.667C22.302,0.42,21.88,0,21.357,0c-0.26,0-0.496,0.105-0.666,0.276l-4.985,4.987l-4.988-4.987
	C10.548,0.105,10.312,0,10.05,0C9.53,0,9.11,0.42,9.11,0.94c0,0.261,0.104,0.498,0.276,0.667l4.986,4.988H2.198
	c-1.214,0-2.197,0.97-2.197,2.166v17.652c0,1.196,0.983,2.168,2.197,2.168h27.014c1.213,0,2.197-0.972,2.197-2.168V8.762
	C31.411,7.565,30.425,6.596,29.212,6.596z M23.872,22.301c0,2.08-1.688,3.768-3.771,3.768H5.968c-2.084,0-3.77-1.688-3.77-3.768
	v-9.424c0-2.082,1.688-3.77,3.77-3.77h14.136c2.082,0,3.77,1.688,3.77,3.77L23.872,22.301L23.872,22.301z M27.643,17.902
	c-1.041,0-1.886-0.843-1.886-1.884c0-1.042,0.845-1.885,1.886-1.885c1.039,0,1.883,0.843,1.883,1.885S28.682,17.902,27.643,17.902z
	 M27.643,12.877c-1.041,0-1.886-0.844-1.886-1.885s0.845-1.885,1.886-1.885c1.039,0,1.883,0.844,1.883,1.885
	S28.682,12.877,27.643,12.877z"/>
</svg>
