<?xml version="1.0" encoding="utf-8"?>
<!-- Generator: Adobe Illustrator 15.1.0, SVG Export Plug-In . SVG Version: 6.00 Build 0)  -->
<!DOCTYPE svg PUBLIC "-//W3C//DTD SVG 1.1//EN" "http://www.w3.org/Graphics/SVG/1.1/DTD/svg11.dtd">
<svg version="1.1" id="Layer_1" xmlns="http://www.w3.org/2000/svg" xmlns:xlink="http://www.w3.org/1999/xlink" x="0px" y="0px"
	 width="75px" height="75px" viewBox="0 0 75 75" enable-background="new 0 0 75 75" xml:space="preserve">
<g>
	<g>
		<g>
			<circle fill="#202020" cx="38.337" cy="30.216" r="20.596"/>
		</g>
		<g>
			<polygon fill="#E3E3E3" points="37.348,31.257 48.453,24.938 39.03,33.568 			"/>
			<polygon fill="#E3E3E3" points="38.632,32.858 28.331,21.618 40.55,30.736 			"/>
		</g>
		
			<line fill="none" stroke="#E3E3E3" stroke-width="2" stroke-linecap="round" stroke-linejoin="round" stroke-miterlimit="10" x1="38.337" y1="9.62" x2="38.337" y2="12.26"/>
		
			<line fill="none" stroke="#E3E3E3" stroke-width="2" stroke-linecap="round" stroke-linejoin="round" stroke-miterlimit="10" x1="38.337" y1="48.174" x2="38.337" y2="50.812"/>
		
			<line fill="none" stroke="#E3E3E3" stroke-width="2" stroke-linecap="round" stroke-linejoin="round" stroke-miterlimit="10" x1="58.935" y1="30.216" x2="56.294" y2="30.216"/>
		
			<line fill="none" stroke="#E3E3E3" stroke-width="2" stroke-linecap="round" stroke-linejoin="round" stroke-miterlimit="10" x1="20.379" y1="30.216" x2="17.742" y2="30.216"/>
	</g>
	<g>
		<g>
			<path fill="#202020" d="M21.519,59.586h-1.98v-0.715h4.82v0.715h-1.99v5.795h-0.85V59.586z"/>
			<path fill="#202020" d="M25.92,58.871v6.51h-0.84v-6.51H25.92z"/>
			<path fill="#202020" d="M32.874,62.521c-0.048-0.908-0.106-2-0.097-2.812h-0.029c-0.222,0.765-0.493,1.574-0.821,2.474
				l-1.149,3.157H30.14l-1.053-3.1c-0.309-0.918-0.57-1.761-0.753-2.531h-0.02c-0.019,0.812-0.067,1.901-0.125,2.879l-0.174,2.791
				h-0.802l0.454-6.51h1.072l1.111,3.147c0.27,0.801,0.492,1.517,0.657,2.191h0.029c0.164-0.656,0.396-1.371,0.686-2.191
				l1.159-3.147h1.072l0.406,6.51h-0.821L32.874,62.521z"/>
			<path fill="#202020" d="M38.519,62.328H35.99v2.348h2.82v0.705h-3.661v-6.51h3.517v0.705h-2.677v2.057h2.529L38.519,62.328
				L38.519,62.328z"/>
			<path fill="#202020" d="M39.897,58.871h0.842v5.805h2.781v0.705h-3.623V58.871z"/>
			<path fill="#202020" d="M45.296,58.871v6.51h-0.84v-6.51H45.296z"/>
			<path fill="#202020" d="M46.763,65.381v-6.51h0.916l2.088,3.293c0.482,0.764,0.859,1.449,1.168,2.115l0.02-0.01
				c-0.078-0.869-0.098-1.662-0.098-2.677V58.87h0.793v6.51H50.8l-2.068-3.305c-0.453-0.724-0.889-1.468-1.217-2.173l-0.029,0.011
				c0.049,0.819,0.068,1.604,0.068,2.687v2.78L46.763,65.381L46.763,65.381z"/>
			<path fill="#202020" d="M56.485,62.328h-2.53v2.348h2.819v0.705h-3.66v-6.51h3.517v0.705h-2.676v2.057h2.53V62.328z"/>
		</g>
	</g>
</g>
</svg>
