<?xml version="1.0" encoding="utf-8"?>
<!-- Generator: Adobe Illustrator 16.0.0, SVG Export Plug-In . SVG Version: 6.00 Build 0)  -->
<!DOCTYPE svg PUBLIC "-//W3C//DTD SVG 1.1//EN" "http://www.w3.org/Graphics/SVG/1.1/DTD/svg11.dtd">
<svg version="1.1" id="Layer_1" xmlns="http://www.w3.org/2000/svg" xmlns:xlink="http://www.w3.org/1999/xlink" x="0px" y="0px"
	 width="58.669px" height="58.668px" viewBox="0 0 58.669 58.668" enable-background="new 0 0 58.669 58.668" xml:space="preserve">
<g>
	<path fill="#F7F7F7" d="M29.334,0C13.132,0,0,13.133,0,29.334c0,16.203,13.132,29.334,29.334,29.334s29.335-13.132,29.335-29.334
		C58.669,13.133,45.536,0,29.334,0z M30.381,53.404v-4.166h-3.492v4.166C16.413,52.557,6.111,42.254,5.264,31.779h4.164v-3.493
		H5.264C6.111,16.413,16.413,6.11,26.889,5.262v6.262h3.492V5.262C42.255,6.11,52.557,16.413,53.404,28.287h-6.261v3.493h6.261
		C52.557,42.254,42.255,52.557,30.381,53.404z"/>
	<path fill="#F7F7F7" d="M29.377,26.19c-0.063-0.004-0.123-0.019-0.187-0.019c-0.383,0-0.745,0.078-1.087,0.198l-10.346-7.314
		l8.164,10.799c0.188,1.648,1.57,2.933,3.269,2.933c1.827,0,3.309-1.481,3.309-3.309c0-0.235-0.026-0.463-0.072-0.684L45.08,13.372
		L29.377,26.19z"/>
</g>
</svg>
