<?xml version="1.0" encoding="utf-8"?>
<!-- Generator: Adobe Illustrator 16.0.0, SVG Export Plug-In . SVG Version: 6.00 Build 0)  -->
<!DOCTYPE svg PUBLIC "-//W3C//DTD SVG 1.1//EN" "http://www.w3.org/Graphics/SVG/1.1/DTD/svg11.dtd">
<svg version="1.1" id="Layer_1" xmlns="http://www.w3.org/2000/svg" xmlns:xlink="http://www.w3.org/1999/xlink" x="0px" y="0px"
	 width="31.482px" height="23.416px" viewBox="0 0 31.482 23.416" enable-background="new 0 0 31.482 23.416" xml:space="preserve">
<path fill="#F6F7F7" stroke="#000000" stroke-miterlimit="10" d="M30.98,3.528l-5.104,0.851c-0.203,0-0.399,0.281-0.455,0.951
	h-1.643V2.173C23.778,0.974,22.982,0,21.997,0L1.782,1.407c-0.986,0-1.783,0.973-1.783,2.173v10.95c0,1.199,0.799,2.173,1.784,2.173
	l3.945,0.272l2.645,5.807v0.33c0,0.103,0.136,0.304,0.249,0.304h4.828c0.045,0,0.195-0.072,0.229-0.095l-2.661-5.979l10.979,0.766
	c0.985,0,1.781-0.974,1.781-2.174v-3.236h1.642c0.056,0.67,0.226,0.992,0.431,0.992l5.131,0.875c0.247,0,0.502-0.578,0.502-1.312
	v-8.4C31.482,4.122,31.227,3.528,30.98,3.528z M8.179,12.271c-1.911,0-3.461-1.55-3.461-3.46s1.551-3.459,3.461-3.459
	S11.64,6.9,11.64,8.81S10.091,12.271,8.179,12.271z"/>
</svg>
