<?xml version="1.0" encoding="utf-8"?>
<!-- Generator: Adobe Illustrator 16.0.0, SVG Export Plug-In . SVG Version: 6.00 Build 0)  -->
<!DOCTYPE svg PUBLIC "-//W3C//DTD SVG 1.1//EN" "http://www.w3.org/Graphics/SVG/1.1/DTD/svg11.dtd">
<svg version="1.1" id="Layer_1" xmlns="http://www.w3.org/2000/svg" xmlns:xlink="http://www.w3.org/1999/xlink" x="0px" y="0px"
	 width="24.754px" height="20.695px" viewBox="0 0 24.754 20.695" enable-background="new 0 0 24.754 20.695" xml:space="preserve">
<g>
	<g>
		<polygon fill="#F7F8F8" stroke="#010101" stroke-miterlimit="10" points="2.74,20.195 5.991,20.195 5.991,8.042 0.596,8.042 		"/>
		<path fill="#F7F8F8" stroke="#010101" stroke-miterlimit="10" d="M24.254,9.927c0-1.3-1.04-1.497-1.04-1.497h-6.76
			c0,0-0.456-0.582-0.066-1.818c0.391-1.235,0.457-3.055,0.131-3.834c-0.324-0.779-0.91-2.211-2.404-2.275
			c-0.877,0.134-1.17,0.845-1.17,0.845v2.861c0,0-2.794,5.067-3.184,5.132C9.369,9.406,7.813,9.602,7.813,9.602v8.969h0.452
			c0,0,3.314,1.625,3.963,1.625c0.651,0,8.19,0,8.19,0s1.17-0.262,1.17-1.56c0-0.844-0.715-1.366-0.715-1.366
			s1.756-0.129,1.756-1.624c0-0.614-0.847-1.17-0.847-1.17s1.626-0.325,1.562-1.688c-0.131-0.846-0.586-1.302-0.586-1.302
			S24.254,11.226,24.254,9.927z"/>
	</g>
</g>
</svg>
