<?xml version="1.0" encoding="utf-8"?>
<!-- Generator: Adobe Illustrator 16.0.0, SVG Export Plug-In . SVG Version: 6.00 Build 0)  -->
<!DOCTYPE svg PUBLIC "-//W3C//DTD SVG 1.1//EN" "http://www.w3.org/Graphics/SVG/1.1/DTD/svg11.dtd">
<svg version="1.1" id="Layer_1" xmlns="http://www.w3.org/2000/svg" xmlns:xlink="http://www.w3.org/1999/xlink" x="0px" y="0px"
	 width="41.442px" height="25.929px" viewBox="0 0 41.442 25.929" enable-background="new 0 0 41.442 25.929" xml:space="preserve">
<g>
	<g>
		<g>
			<polygon fill="#F7F8F8" stroke="#010101" stroke-miterlimit="10" points="19.429,21.658 22.681,21.658 22.681,9.505 
				17.285,9.505 			"/>
			<path fill="#F7F8F8" stroke="#010101" stroke-miterlimit="10" d="M40.942,11.39c0-1.3-1.039-1.497-1.039-1.497h-6.76
				c0,0-0.456-0.582-0.066-1.818c0.391-1.235,0.456-3.055,0.131-3.834c-0.324-0.78-0.91-2.211-2.404-2.275
				c-0.877,0.134-1.17,0.845-1.17,0.845v2.86c0,0-2.794,5.068-3.184,5.133c-0.392,0.065-1.947,0.262-1.947,0.262v8.969h0.451
				c0,0,3.314,1.625,3.964,1.625c0.651,0,8.19,0,8.19,0s1.17-0.262,1.17-1.56c0-0.845-0.715-1.366-0.715-1.366
				s1.756-0.129,1.756-1.624c0-0.614-0.847-1.17-0.847-1.17s1.625-0.325,1.561-1.689c-0.13-0.845-0.585-1.301-0.585-1.301
				S40.942,12.688,40.942,11.39z"/>
		</g>
	</g>
	<g>
		<g>
			<g>
				<polygon fill="#F7F8F8" stroke="#010101" stroke-miterlimit="10" points="2.74,20.196 5.991,20.196 5.991,8.042 0.596,8.042 
									"/>
				<path fill="#F7F8F8" stroke="#010101" stroke-miterlimit="10" d="M24.254,9.927c0-1.3-1.04-1.496-1.04-1.496h-6.759
					c0,0-0.456-0.583-0.066-1.818c0.39-1.236,0.456-3.056,0.131-3.835c-0.324-0.779-0.91-2.21-2.405-2.275
					c-0.877,0.135-1.17,0.845-1.17,0.845v2.861c0,0-2.794,5.068-3.184,5.132C9.369,9.406,7.813,9.602,7.813,9.602v8.97h0.452
					c0,0,3.314,1.625,3.963,1.625c0.651,0,8.19,0,8.19,0s1.169-0.262,1.169-1.561c0-0.844-0.715-1.365-0.715-1.365
					s1.756-0.13,1.756-1.624c0-0.614-0.847-1.171-0.847-1.171s1.626-0.324,1.562-1.688c-0.131-0.845-0.586-1.301-0.586-1.301
					S24.254,11.226,24.254,9.927z"/>
			</g>
		</g>
		<g>
			<g>
				<polygon fill="#F7F8F8" stroke="#010101" stroke-miterlimit="10" points="9.958,25.429 13.209,25.429 13.209,13.274 
					7.813,13.274 				"/>
				<path fill="#F7F8F8" stroke="#010101" stroke-miterlimit="10" d="M31.472,15.159c0-1.3-1.039-1.496-1.039-1.496h-6.76
					c0,0-0.457-0.583-0.066-1.818c0.39-1.236,0.455-3.056,0.131-3.834c-0.324-0.78-0.91-2.211-2.405-2.276
					c-0.877,0.135-1.17,0.845-1.17,0.845V9.44c0,0-2.793,5.068-3.184,5.132c-0.391,0.066-1.947,0.262-1.947,0.262v8.97h0.452
					c0,0,3.314,1.625,3.963,1.625c0.651,0,8.191,0,8.191,0s1.17-0.262,1.17-1.561c0-0.844-0.716-1.365-0.716-1.365
					s1.756-0.13,1.756-1.624c0-0.614-0.847-1.17-0.847-1.17s1.626-0.325,1.561-1.689c-0.129-0.845-0.585-1.301-0.585-1.301
					S31.472,16.459,31.472,15.159z"/>
			</g>
		</g>
	</g>
</g>
</svg>
