<?xml version="1.0" encoding="utf-8"?>
<!-- Generator: Adobe Illustrator 16.0.0, SVG Export Plug-In . SVG Version: 6.00 Build 0)  -->
<!DOCTYPE svg PUBLIC "-//W3C//DTD SVG 1.1//EN" "http://www.w3.org/Graphics/SVG/1.1/DTD/svg11.dtd">
<svg version="1.1" id="Layer_1" xmlns="http://www.w3.org/2000/svg" xmlns:xlink="http://www.w3.org/1999/xlink" x="0px" y="0px"
	 width="31.972px" height="25.929px" viewBox="0 0 31.972 25.929" enable-background="new 0 0 31.972 25.929" xml:space="preserve">
<g>
	<g>
		<g>
			<polygon fill="#F7F8F8" stroke="#010101" stroke-miterlimit="10" points="2.74,20.196 5.991,20.196 5.991,8.042 0.596,8.042 			
				"/>
			<path fill="#F7F8F8" stroke="#010101" stroke-miterlimit="10" d="M24.253,9.927c0-1.3-1.039-1.497-1.039-1.497h-6.76
				c0,0-0.456-0.582-0.066-1.818c0.391-1.235,0.456-3.055,0.131-3.834c-0.324-0.779-0.91-2.211-2.404-2.275
				c-0.877,0.134-1.17,0.845-1.17,0.845v2.861c0,0-2.793,5.068-3.184,5.132C9.37,9.406,7.814,9.602,7.814,9.602v8.97h0.452
				c0,0,3.314,1.625,3.963,1.625c0.651,0,8.19,0,8.19,0s1.17-0.262,1.17-1.561c0-0.844-0.715-1.366-0.715-1.366
				s1.756-0.129,1.756-1.624c0-0.613-0.847-1.17-0.847-1.17s1.626-0.325,1.561-1.688c-0.13-0.846-0.585-1.301-0.585-1.301
				S24.253,11.226,24.253,9.927z"/>
		</g>
	</g>
	<g>
		<g>
			<polygon fill="#F7F8F8" stroke="#010101" stroke-miterlimit="10" points="9.958,25.429 13.209,25.429 13.209,13.274 
				7.814,13.274 			"/>
			<path fill="#F7F8F8" stroke="#010101" stroke-miterlimit="10" d="M31.472,15.159c0-1.3-1.039-1.497-1.039-1.497h-6.76
				c0,0-0.457-0.582-0.066-1.817c0.39-1.236,0.455-3.056,0.13-3.835c-0.323-0.779-0.909-2.211-2.404-2.275
				c-0.877,0.134-1.17,0.845-1.17,0.845V9.44c0,0-2.794,5.068-3.184,5.132c-0.392,0.066-1.947,0.262-1.947,0.262v8.97h0.452
				c0,0,3.314,1.625,3.963,1.625c0.651,0,8.19,0,8.19,0s1.171-0.262,1.171-1.561c0-0.844-0.717-1.365-0.717-1.365
				s1.756-0.13,1.756-1.625c0-0.613-0.846-1.17-0.846-1.17s1.625-0.324,1.561-1.688c-0.129-0.846-0.585-1.301-0.585-1.301
				S31.472,16.458,31.472,15.159z"/>
		</g>
	</g>
</g>
</svg>
